PathFileType	4	(X/Y/Z)	/Users/itak/Documents/Research/Walk-IL/dataset/trc/00553_00009.trc
DataRate	CameraRate	NumFrames	NumMarkers	Units	OrigDataRate	OrigDataStartFrame	OrigNumFrames
100.000000	100.000000	4	53	mm	100.000000	363	485
Frame#	Time	RPSI			LPSI			L3			STRN			T10			C7			CLAV			RBAK			LBAK			LSHO			LUPA			LAEL			LAOL			LWTS			LWPS			LFRA			LIFD			LHPS			LHTS			RSHO			RUPA			RAEL			RAOL			RWTS			RWPS			RFRA			RIFD			RHTS			RHPS			RBHD			LFHD			RFHD			LBHD			LHIP			RHIP			RASI			LASI			LKNE			LTHI			LANK			LTIP			LTOE			LMT1			LMT5			LHEE			RKNE			RTHI			RANK			RTIP			RTOE			RMT1			RMT5			RHEE			
		X1	Y1	Z1	X2	Y2	Z2	X3	Y3	Z3	X4	Y4	Z4	X5	Y5	Z5	X6	Y6	Z6	X7	Y7	Z7	X8	Y8	Z8	X9	Y9	Z9	X10	Y10	Z10	X11	Y11	Z11	X12	Y12	Z12	X13	Y13	Z13	X14	Y14	Z14	X15	Y15	Z15	X16	Y16	Z16	X17	Y17	Z17	X18	Y18	Z18	X19	Y19	Z19	X20	Y20	Z20	X21	Y21	Z21	X22	Y22	Z22	X23	Y23	Z23	X24	Y24	Z24	X25	Y25	Z25	X26	Y26	Z26	X27	Y27	Z27	X28	Y28	Z28	X29	Y29	Z29	X30	Y30	Z30	X31	Y31	Z31	X32	Y32	Z32	X33	Y33	Z33	X34	Y34	Z34	X35	Y35	Z35	X36	Y36	Z36	X37	Y37	Z37	X38	Y38	Z38	X39	Y39	Z39	X40	Y40	Z40	X41	Y41	Z41	X42	Y42	Z42	X43	Y43	Z43	X44	Y44	Z44	X45	Y45	Z45	X46	Y46	Z46	X47	Y47	Z47	X48	Y48	Z48	X49	Y49	Z49	X50	Y50	Z50	X51	Y51	Z51	X52	Y52	Z52	X53	Y53	Z53	

364	3.63	836.041015625	1003.487854003906	352.4790649414062	839.8887329101562	998.1874389648438	218.7567443847656	840.4491577148438	1100.908447265625	283.9231872558594	1076.17626953125	1286.756591796875	278.077392578125	834.6256103515625	1226.47021484375	285.5116271972656	886.1385498046875	1498.052124023438	306.9633483886719	1057.775268554688	1397.346435546875	280.570556640625	820.6072387695312	1373.69970703125	393.7549438476562	845.1767578125	1447.88232421875	217.8066711425781	936.949951171875	1473.048217773438	129.8576202392578	914.21240234375	1349.509399414062	48.80207061767578	916.941650390625	1128.856323242188	17.20587539672852	837.5079956054688	1123.084350585938	77.73735046386719	1007.320617675781	880.9734497070312	42.96323013305664	954.0743408203125	863.3671264648438	-24.05663299560547	935.8218994140625	1042.233276367188	3.601413249969482	993.7379760742188	710.918701171875	32.29901123046875	959.7872924804688	802.8108520507812	-18.6016788482666	1016.221984863281	803.3240966796875	19.68118095397949	955.8455810546875	1458.777099609375	454.800048828125	940.716064453125	1395.720947265625	523.3677978515625	946.1925048828125	1111.524169921875	581.4503173828125	891.5662231445312	1087.80419921875	559.30517578125	1113.002807617188	919.2720947265625	536.9368286132812	1075.518676757812	890.2637329101562	603.667236328125	964.0596313476562	1058.277954101562	589.9715576171875	1160.595458984375	752.0222778320312	541.3646850585938	1159.314453125	835.8135375976562	550.1392211914062	1106.416748046875	820.9395751953125	599.86474609375	997.4490966796875	1678.970825195312	372.4749450683594	1134.653442382812	1685.469482421875	215.8381195068359	1137.4541015625	1680.537475585938	360.4820251464844	1000.660583496094	1681.540161132812	207.4180755615234	978.60595703125	927.7737426757812	93.94547271728516	956.6441650390625	938.7717895507812	479.7504272460938	1046.056274414062	969.3046264648438	424.4454956054688	1050.194702148438	958.544677734375	149.9151458740234	1179.055053710938	527.3843994140625	138.72412109375	1105.086059570312	678.3506469726562	104.0855712890625	1163.462158203125	40.35169219970703	132.4941558837891	1150.234008789062	272.4292297363281	127.3135452270508	1368.140747070312	79.66795349121094	167.7117919921875	1303.01220703125	70.20935821533203	209.5030212402344	1280.468505859375	50.44287490844727	107.6976013183594	1100.745483398438	43.18098831176758	191.4064178466797	957.578857421875	494.0670471191406	410.2502136230469	990.0856323242188	781.8695678710938	467.1435852050781	807.6734008789062	45.55894088745117	365.7463684082031	938.4667358398438	350.6419982910156	387.5213623046875	1026.814697265625	39.86819458007812	321.1927490234375	961.5361938476562	44.56300354003906	283.2585144042969	939.458740234375	38.15302658081055	387.0877685546875	751.297607421875	46.08235931396484	309.9024658203125	
365	3.64	843.7591552734375	1002.888854980469	351.7763671875	847.9921875	997.3026733398438	218.102294921875	848.1614379882812	1100.039428710938	283.0331420898438	1083.868530273438	1285.88525390625	277.4632568359375	842.1719970703125	1225.636352539062	284.4764404296875	893.8431396484375	1497.2099609375	306.0455322265625	1065.484619140625	1396.471557617188	279.9725646972656	828.0294189453125	1372.886840820312	392.7603149414062	853.0048217773438	1447.025512695312	216.8408508300781	944.9384155273438	1472.193359375	129.0113372802734	922.12744140625	1348.648315429688	48.00012969970703	924.2980346679688	1127.937377929688	16.66325187683105	844.8175659179688	1122.419677734375	77.21361541748047	1013.648620605469	879.6029663085938	42.74911117553711	960.4642944335938	862.26416015625	-24.41304779052734	942.8961181640625	1041.25244140625	3.104960441589355	998.9505004882812	709.61083984375	32.26094436645508	965.7413330078125	801.666259765625	-18.8475456237793	1022.110168457031	801.8411865234375	19.5332145690918	963.2401733398438	1457.76708984375	453.9415893554688	948.1246948242188	1394.708862304688	522.5211791992188	953.9743041992188	1110.503295898438	580.4801635742188	899.3953857421875	1086.7001953125	558.2614135742188	1121.085205078125	918.5115356445312	536.1234130859375	1083.574340820312	889.4140625	602.7872924804688	971.856201171875	1057.259155273438	588.9907836914062	1168.986450195312	751.3477172851562	540.5083618164062	1167.550659179688	835.1489868164062	549.3426513671875	1114.557373046875	820.1397705078125	598.9765014648438	1005.322082519531	1678.057983398438	371.9272155761719	1142.686279296875	1684.461669921875	215.44482421875	1145.328369140625	1679.3935546875	360.0886840820312	1008.691650390625	1680.727294921875	206.8885955810547	986.7798461914062	926.724365234375	93.53733062744141	963.8673095703125	938.4120483398438	479.4596862792969	1053.582275390625	968.6049194335938	424.21240234375	1058.352172851562	957.5695190429688	149.6129455566406	1185.739135742188	526.2353515625	138.6861419677734	1111.966918945312	676.9694213867188	103.6375885009766	1189.462646484375	39.53772735595703	132.9209747314453	1166.76171875	270.90283203125	127.3582305908203	1392.437866210938	84.47664642333984	170.407958984375	1327.117065429688	73.54109191894531	211.4761962890625	1306.397583007812	52.60377502441406	109.558723449707	1126.034912109375	40.74130249023438	191.2162628173828	960.5104370117188	493.8934936523438	410.1629028320312	996.1649780273438	781.2792358398438	466.9398193359375	807.6978149414062	46.02925109863281	365.586181640625	940.3093872070312	350.5690612792969	387.5304260253906	1026.870727539062	39.78831481933594	321.2286682128906	961.70458984375	44.60781097412109	283.3414916992188	939.517333984375	38.12980270385742	387.0965576171875	751.3970336914062	46.89563751220703	309.7554016113281	
366	3.65	851.5453491210938	1002.216430664062	351.0013122558594	856.187744140625	996.339111328125	217.3812713623047	855.9190673828125	1099.103881835938	282.0902709960938	1091.576904296875	1284.984985351562	276.7973327636719	849.7561645507812	1224.731323242188	283.3783874511719	901.5361938476562	1496.311767578125	305.0504150390625	1073.213134765625	1395.555053710938	279.3497924804688	835.4161987304688	1372.02099609375	391.6907348632812	860.8207397460938	1446.09423828125	215.8078002929688	952.9131469726562	1471.273315429688	128.0957183837891	930.0726928710938	1347.706420898438	47.13460540771484	931.787109375	1126.94580078125	16.05868911743164	852.2415771484375	1121.658447265625	76.58963012695312	1020.243469238281	878.2196655273438	42.52966690063477	967.163818359375	861.108154296875	-24.79740715026855	950.1654663085938	1040.208740234375	2.550620317459106	1004.544067382812	708.2761840820312	32.21438217163086	972.0465698242188	800.4775390625	-19.12457466125488	1028.326904296875	800.35546875	19.38136863708496	970.6552734375	1456.713012695312	453.0443420410156	955.5057373046875	1393.64013671875	521.5984497070312	961.6902465820312	1109.421264648438	579.4188232421875	907.1396484375	1085.554077148438	557.1101684570312	1128.939453125	917.52734375	535.2718505859375	1091.364624023438	888.3789672851562	601.8760375976562	979.5468139648438	1056.16552734375	587.9246215820312	1176.969360351562	750.3909301757812	539.663330078125	1175.463256835938	834.2049560546875	548.5352783203125	1122.372192382812	819.1063232421875	598.0726318359375	1013.141845703125	1677.099975585938	371.2834167480469	1150.703369140625	1683.427490234375	214.9720611572266	1153.155639648438	1678.229248046875	359.6190795898438	1016.704772949219	1679.879028320312	206.2636260986328	995.08056640625	925.6241455078125	93.10934448242188	971.1337890625	938.0240478515625	479.1333312988281	1061.170654296875	967.8882446289062	423.9645080566406	1066.62744140625	956.5599975585938	149.2958831787109	1192.365112304688	524.935791015625	138.6195526123047	1118.882202148438	675.4511108398438	103.1545791625977	1214.260375976562	39.17111587524414	133.5744781494141	1182.597045898438	269.6034240722656	127.5012512207031	1415.329956054688	89.82978057861328	173.3287353515625	1349.840576171875	77.37638854980469	213.6714019775391	1331.021484375	55.32159805297852	111.6680374145508	1150.121337890625	38.70493698120117	191.2337646484375	963.5054931640625	493.728271484375	410.0880432128906	1002.270141601562	780.6939697265625	466.7854919433594	807.761474609375	46.55294036865234	365.4164123535156	942.2147216796875	350.52783203125	387.5542297363281	1026.925903320312	39.72686767578125	321.2752075195312	961.8665161132812	44.67611312866211	283.43212890625	939.5592041015625	38.09952163696289	387.1067810058594	751.4841918945312	47.77955627441406	309.6409606933594	
367	3.66	859.3968505859375	1001.473022460938	350.138671875	864.4733276367188	995.2947387695312	216.5747833251953	863.7388305664062	1098.10986328125	281.0900573730469	1099.303466796875	1284.057495117188	276.0835571289062	857.3875122070312	1223.764038085938	282.2087707519531	909.2218017578125	1495.360229492188	303.9824829101562	1080.95947265625	1394.59912109375	278.6950378417969	842.7877197265625	1371.10400390625	390.5496826171875	868.6319580078125	1445.095581054688	214.7064361572266	960.8778076171875	1470.289672851562	127.1122741699219	938.0510864257812	1346.6826171875	46.20773315429688	939.4065551757812	1125.8837890625	15.38930416107178	859.7861328125	1120.802612304688	75.86330413818359	1027.10888671875	876.8287963867188	42.29766845703125	974.1742553710938	859.9043579101562	-25.21952438354492	957.622802734375	1039.102294921875	1.939174652099609	1010.556701660156	706.927734375	32.13552474975586	978.7120971679688	799.2489013671875	-19.4410285949707	1034.882934570312	798.874755859375	19.21759796142578	978.0855712890625	1455.6318359375	452.1090087890625	962.8656616210938	1392.522827148438	520.6032104492188	969.3455810546875	1108.283325195312	578.2705688476562	914.8067626953125	1084.375366210938	555.8554077148438	1136.571166992188	916.3248901367188	534.3822021484375	1098.893188476562	887.16455078125	600.9359130859375	987.140380859375	1055.005249023438	586.7802124023438	1184.545532226562	749.1555786132812	538.8358764648438	1183.054077148438	832.982666015625	547.7214965820312	1129.875122070312	817.8470458984375	597.1520385742188	1020.907348632812	1676.1015625	370.5399780273438	1158.70361328125	1682.373657226562	214.4111175537109	1160.9365234375	1677.054443359375	359.0663757324219	1024.699462890625	1679.000244140625	205.5369262695312	1003.516662597656	924.4818115234375	92.65178680419922	978.4509887695312	937.6019287109375	478.7560424804688	1068.819091796875	967.1514892578125	423.6947937011719	1075.0263671875	955.518310546875	148.9558563232422	1199.012084960938	523.5263671875	138.5576019287109	1125.8896484375	673.8204956054688	102.6506423950195	1237.712280273438	39.13175964355469	134.4224243164062	1197.692749023438	268.5001831054688	127.740104675293	1436.68212890625	95.62531280517578	176.4463653564453	1371.051635742188	81.60240936279297	216.0516357421875	1354.19189453125	58.50278472900391	113.9853210449219	1172.8681640625	36.95978927612305	191.4046173095703	966.5984497070312	493.565185546875	410.0199279785156	1008.424377441406	780.106201171875	466.6730651855469	807.881103515625	47.12814331054688	365.2383422851562	944.2101440429688	350.5111999511719	387.5841369628906	1026.975463867188	39.68466567993164	321.3309631347656	962.0243530273438	44.76415252685547	283.5321350097656	939.5863647460938	38.0637092590332	387.1163940429688	751.5687866210938	48.73816680908203	309.5494384765625	
